<svg width="259" height="120" xmlns="http://www.w3.org/2000/svg" xmlns:xlink="http://www.w3.org/1999/xlink" xml:space="preserve" overflow="hidden"><defs><clipPath id="clip0"><rect x="513" y="0" width="259" height="120"/></clipPath><clipPath id="clip1"><rect x="513" y="0" width="259" height="120"/></clipPath><clipPath id="clip2"><rect x="514" y="0" width="257" height="119"/></clipPath><clipPath id="clip3"><rect x="514" y="0" width="257" height="119"/></clipPath></defs><g clip-path="url(#clip0)" transform="translate(-513 0)"><g clip-path="url(#clip1)"><g clip-path="url(#clip2)"><g clip-path="url(#clip3)"><g><path d="M294.583 37.6945C294.583 35.7436 294.695 34.5044 296.006 33.8343 297.53 33.0825 299.153 32.5514 300.827 32.257L300.868 32.257C300.963 32.257 300.969 31.9546 300.827 31.9546L264.579 31.9546C264.431 31.9546 264.437 32.2333 264.531 32.257L264.573 32.257C266.244 32.5561 267.865 33.089 269.388 33.8402 270.704 34.5044 270.811 35.7555 270.811 37.7063L270.811 73.9303C270.811 82.1902 266.067 88.5349 256.693 88.5349 247.318 88.5349 242.568 82.1902 242.568 73.9303L242.568 37.7182C242.568 35.7614 242.681 34.5044 243.991 33.8343 245.513 33.0825 247.134 32.5514 248.806 32.257L248.854 32.257C248.948 32.257 248.948 31.9546 248.806 31.9546L214.586 31.9546C214.438 31.9546 214.444 32.2333 214.539 32.257L214.58 32.257C215.623 32.466 216.591 32.949 217.385 33.6564 218.518 34.617 218.808 35.7555 218.808 37.7063L218.808 73.284C218.808 90.4442 228.201 105.019 256.698 105.019 285.196 105.019 294.589 90.4442 294.589 73.284Z" fill="#002D5D" fill-rule="nonzero" fill-opacity="1" transform="matrix(1.00334 0 0 1 467.103 -18.242)"/><path d="M71.8312 45.486 82.8484 45.486C90.0232 45.486 94.2392 46.6007 94.2392 53.1292 94.2392 57.3689 91.6242 61.152 83.139 61.152L71.8312 61.152ZM71.8312 72.2463 81.3838 72.2463C87.7463 72.2463 95.5378 72.2463 95.5378 81.0577 95.5378 87.5802 89.958 89.8691 82.4571 89.8691L71.8312 89.8691ZM48.9548 37.6945 48.9548 97.963C48.9548 99.9197 48.8362 101.183 47.5258 101.847 45.9975 102.6 44.3706 103.133 42.6931 103.43 42.5923 103.43 42.5864 103.732 42.7346 103.732L91.4819 103.732C112.04 103.732 120.691 95.5733 120.691 82.8484 120.691 73.4381 116.309 67.6093 107.646 65.451 107.593 65.451 107.587 65.3146 107.646 65.2968 113.172 63.5713 118.254 59.5214 118.254 49.7257 118.254 36.4374 109.283 31.9368 89.703 31.9368L42.7228 31.9368C42.5805 31.9368 42.5864 32.2155 42.6813 32.2393L42.7228 32.2393C44.3962 32.5345 46.0193 33.0655 47.5436 33.8165 48.854 34.5044 48.9548 35.7377 48.9548 37.6945Z" fill="#002D5D" fill-rule="nonzero" fill-opacity="1" transform="matrix(1.00334 0 0 1 467.103 -18.242)"/><path d="M178.137 32.257C179.353 32.257 181.238 32.346 181.102 35.2218 180.995 37.7004 168.252 55.7501 166.764 58.46 162.293 51.6824 152.533 37.9139 152.409 35.2218 152.331 33.016 154.187 32.257 155.8 32.257L155.842 32.257C155.937 32.257 155.949 31.9546 155.8 31.9546L120.596 31.9546C120.454 31.9546 120.46 32.2333 120.555 32.257L120.596 32.257C121.982 32.4708 123.323 32.9137 124.563 33.5675 124.876 33.74 125.173 33.9383 125.453 34.1604 126.761 35.3286 127.89 36.6833 128.803 38.1807L153.636 74.9443 153.636 97.9689C153.636 99.9197 153.523 101.183 152.213 101.853 150.687 102.599 149.064 103.13 147.392 103.43L147.351 103.43C147.256 103.46 147.25 103.732 147.398 103.732L185.597 103.732C185.745 103.732 185.745 103.46 185.644 103.43L185.597 103.43C183.926 103.13 182.306 102.599 180.782 101.853 179.465 101.183 179.359 99.9257 179.359 97.9748L179.359 75.0984 204.221 38.1807C205.135 36.6818 206.264 35.3253 207.572 34.1545 207.853 33.9103 208.15 33.6845 208.461 33.4785 209.296 32.8715 210.253 32.4546 211.266 32.257L211.307 32.257C211.408 32.257 211.408 31.9546 211.26 31.9546L178.131 31.9546C177.983 31.9546 177.989 32.2333 178.09 32.257Z" fill="#002D5D" fill-rule="nonzero" fill-opacity="1" transform="matrix(1.00334 0 0 1 467.103 -18.242)"/></g></g></g></g></g></svg>