<svg width="268" height="276" xmlns="http://www.w3.org/2000/svg" xmlns:xlink="http://www.w3.org/1999/xlink" xml:space="preserve" overflow="hidden"><defs><clipPath id="clip0"><rect x="272" y="256" width="268" height="276"/></clipPath><clipPath id="clip1"><rect x="272" y="256" width="268" height="276"/></clipPath><clipPath id="clip2"><rect x="273" y="256" width="266" height="276"/></clipPath><clipPath id="clip3"><rect x="273" y="256" width="266" height="276"/></clipPath><clipPath id="clip4"><rect x="277" y="270" width="277" height="258"/></clipPath></defs><g clip-path="url(#clip0)" transform="translate(-272 -256)"><g clip-path="url(#clip1)"><g clip-path="url(#clip2)"><g clip-path="url(#clip3)"><g clip-path="url(#clip4)"><path d="M321.676 201.401 351.117 201.401 419.079 112.056 419.079 201.401 450.583 201.401 450.583 56.3017 423.44 56.3017 353.168 148.543 353.168 56.3017 321.676 56.3017 321.676 201.401" fill="#141414" fill-rule="nonzero" fill-opacity="1" transform="matrix(1.00081 0 0 -1 278.929 526.217)"/><path d="M522.277 113.516 466.53 201.401 503.848 201.401 538.464 143.148 573.693 201.401 609.947 201.401 554.207 114.13 554.207 56.3017 522.277 56.3017 522.277 113.516" fill="#141414" fill-rule="nonzero" fill-opacity="1" transform="matrix(1.00081 0 0 -1 278.929 526.217)"/><path d="M623.628 118.487 623.628 201.401 655.557 201.401 655.557 119.31C655.557 95.6893 667.338 83.4565 686.84 83.4565 706.308 83.4565 718.141 95.2825 718.141 118.269L718.141 201.401 750.045 201.401 750.045 119.525C750.045 75.5924 725.377 54.0289 686.408 54.0289 647.464 54.0289 623.628 75.7846 623.628 118.487" fill="#141414" fill-rule="nonzero" fill-opacity="1" transform="matrix(1.00081 0 0 -1 278.929 526.217)"/><path d="M27.8127 16.9441 218.677 16.9441 218.677 237.698 27.8127 237.698Z" fill="#FFFFFF" fill-rule="nonzero" fill-opacity="1" transform="matrix(1.00081 0 0 -1 278.929 526.217)"/><path d="M112.559 122.208C86.3798 137.83 88.9999 160.14 99.8501 176.537 100.083 176.88 100.157 177.452 100.083 178.117 99.6286 182.017 95.3743 191.884 93.5972 194.567 93.1426 195.247 92.7547 195.191 92.7103 194.708 92.5662 190.248 87.4885 179.067 79.7166 166.192 71.457 152.49 71.4387 122.751 112.444 121.591 112.837 121.58 112.947 121.983 112.559 122.208ZM119.562 123.362C103.912 156.798 135.217 178.395 140.316 183.078 141.037 183.736 140.856 184.341 140.87 185.092 140.87 195.62 134.839 212.652 132.863 215.088 132.586 215.465 132.349 215.302 132.234 214.922 129.562 204.545 115.316 189.078 112.444 185.694 88.2756 156.957 93.8077 139.459 119.041 122.955 119.363 122.751 119.75 122.984 119.562 123.362ZM124.662 124.783C132.057 160.25 160.923 161.115 163.506 167.844 167.533 178.34 160.161 196.965 158.277 199.168 158.096 199.405 157.833 199.253 157.74 199.056 153.827 190.464 147.482 182.283 142.851 178.525 136.299 173.247 111.225 154.661 124.048 124.758 124.196 124.388 124.573 124.481 124.662 124.783ZM129.795 121.706C176.533 120.013 179.84 162.604 180.025 178.544 180.047 179.467 179.581 179.548 179.36 178.902 177.974 175.576 171.899 163.697 155.047 156.477 139.998 150.02 130.948 135.372 129.37 122.208 129.3 121.883 129.577 121.706 129.795 121.706ZM140.428 105.741 140.428 116.465 103.564 116.465 103.564 105.741 140.428 105.741ZM118.874 29.86C119.174 28.0678 123.05 27.1882 123.919 29.86L132.848 100.618 111.158 100.618 118.874 29.86ZM255.421 0 0 0 0 255.437 255.421 255.437 255.421 0" fill="#141414" fill-rule="nonzero" fill-opacity="1" transform="matrix(1.00081 0 0 -1 278.929 526.217)"/></g></g></g></g></g></svg>